<mxfile host="app.diagrams.net" agent="Mozilla/5.0 (Windows NT 10.0; Win64; x64) AppleWebKit/537.36 (KHTML, like Gecko) Chrome/134.0.0.0 Safari/537.36" version="26.1.0">
  <diagram name="Page-1" id="vRARwfjkYHynCfGUtFye">
    <mxGraphModel dx="1434" dy="780" grid="1" gridSize="10" guides="1" tooltips="1" connect="1" arrows="1" fold="1" page="1" pageScale="1" pageWidth="850" pageHeight="1100" math="0" shadow="0">
      <root>
        <mxCell id="0" />
        <mxCell id="1" parent="0" />
        <mxCell id="OWcgqqyAH4joTnEA4bHr-1" value="Dashboard" style="shape=umlLifeline;perimeter=lifelinePerimeter;whiteSpace=wrap;container=1;dropTarget=0;collapsible=0;recursiveResize=0;outlineConnect=0;portConstraint=eastwest;newEdgeStyle={&quot;edgeStyle&quot;:&quot;elbowEdgeStyle&quot;,&quot;elbow&quot;:&quot;vertical&quot;,&quot;curved&quot;:0,&quot;rounded&quot;:0};size=65;" vertex="1" parent="1">
          <mxGeometry x="20" y="20" width="150" height="920" as="geometry" />
        </mxCell>
        <mxCell id="OWcgqqyAH4joTnEA4bHr-2" value="RabbitMQ" style="shape=umlLifeline;perimeter=lifelinePerimeter;whiteSpace=wrap;container=1;dropTarget=0;collapsible=0;recursiveResize=0;outlineConnect=0;portConstraint=eastwest;newEdgeStyle={&quot;edgeStyle&quot;:&quot;elbowEdgeStyle&quot;,&quot;elbow&quot;:&quot;vertical&quot;,&quot;curved&quot;:0,&quot;rounded&quot;:0};size=65;" vertex="1" parent="1">
          <mxGeometry x="263" y="20" width="150" height="920" as="geometry" />
        </mxCell>
        <mxCell id="OWcgqqyAH4joTnEA4bHr-3" value="&#xa;Postgres&#xa;" style="shape=umlLifeline;perimeter=lifelinePerimeter;whiteSpace=wrap;container=1;dropTarget=0;collapsible=0;recursiveResize=0;outlineConnect=0;portConstraint=eastwest;newEdgeStyle={&quot;edgeStyle&quot;:&quot;elbowEdgeStyle&quot;,&quot;elbow&quot;:&quot;vertical&quot;,&quot;curved&quot;:0,&quot;rounded&quot;:0};size=65;" vertex="1" parent="1">
          <mxGeometry x="485" y="20" width="150" height="920" as="geometry" />
        </mxCell>
        <mxCell id="OWcgqqyAH4joTnEA4bHr-4" value="Fetching Jira data" style="curved=1;endArrow=block;rounded=0;" edge="1" parent="1" source="OWcgqqyAH4joTnEA4bHr-1" target="OWcgqqyAH4joTnEA4bHr-1">
          <mxGeometry relative="1" as="geometry">
            <Array as="points">
              <mxPoint x="146" y="127" />
              <mxPoint x="146" y="157" />
            </Array>
          </mxGeometry>
        </mxCell>
        <mxCell id="OWcgqqyAH4joTnEA4bHr-5" value="Fetched JIRA data successfully" style="curved=1;endArrow=block;rounded=0;" edge="1" parent="1" source="OWcgqqyAH4joTnEA4bHr-1" target="OWcgqqyAH4joTnEA4bHr-1">
          <mxGeometry relative="1" as="geometry">
            <Array as="points">
              <mxPoint x="146" y="209" />
              <mxPoint x="146" y="239" />
            </Array>
          </mxGeometry>
        </mxCell>
        <mxCell id="OWcgqqyAH4joTnEA4bHr-6" value="Creating Queue and pushing JIRA data" style="verticalAlign=bottom;edgeStyle=elbowEdgeStyle;elbow=vertical;curved=0;rounded=0;endArrow=block;" edge="1" parent="1" source="OWcgqqyAH4joTnEA4bHr-1" target="OWcgqqyAH4joTnEA4bHr-2">
          <mxGeometry relative="1" as="geometry">
            <Array as="points">
              <mxPoint x="225" y="291" />
            </Array>
          </mxGeometry>
        </mxCell>
        <mxCell id="OWcgqqyAH4joTnEA4bHr-10" value="Consumer Waiting forÂ  messages from RabbitMQ Queue" style="curved=1;endArrow=block;rounded=0;" edge="1" parent="1">
          <mxGeometry relative="1" as="geometry">
            <Array as="points">
              <mxPoint x="146" y="380" />
              <mxPoint x="146" y="410" />
            </Array>
            <mxPoint x="94.5" y="380" as="sourcePoint" />
            <mxPoint x="94.5" y="410" as="targetPoint" />
          </mxGeometry>
        </mxCell>
        <mxCell id="OWcgqqyAH4joTnEA4bHr-12" value="Consumer Received data from Queue" style="curved=1;endArrow=block;rounded=0;" edge="1" parent="1">
          <mxGeometry relative="1" as="geometry">
            <Array as="points">
              <mxPoint x="146" y="544" />
              <mxPoint x="146" y="574" />
            </Array>
            <mxPoint x="94.5" y="544" as="sourcePoint" />
            <mxPoint x="94.5" y="574" as="targetPoint" />
          </mxGeometry>
        </mxCell>
        <mxCell id="OWcgqqyAH4joTnEA4bHr-13" value="Jira data inserted into pg sql" style="verticalAlign=bottom;edgeStyle=elbowEdgeStyle;elbow=vertical;curved=0;rounded=0;endArrow=block;" edge="1" parent="1">
          <mxGeometry relative="1" as="geometry">
            <Array as="points">
              <mxPoint x="336" y="626" />
            </Array>
            <mxPoint x="94.5" y="626" as="sourcePoint" />
            <mxPoint x="559.5" y="626" as="targetPoint" />
          </mxGeometry>
        </mxCell>
      </root>
    </mxGraphModel>
  </diagram>
</mxfile>
